# xmcd
#
# Track frame offsets:
#	150
#	15572
#	25155
#	40123
#	55133
#	66677
#	77488
#	96671
#	117017
#	135781
#	154163
#	163839
#	177578
#	195037
#	208551
#	224256
#	238291
#	257425
#	271366
#	290567
#
# Disc length: 4060 seconds
#
# Revision: 0
# Processed by: cddbd v1.5.1PL2 Copyright (c) Steve Scherf et al.
# Submitted via: audiograbber 1.83.01
#
DISCID=1b0fda14
DTITLE=Jens Lisberg - Skýming - Fløga 2
DYEAR=2005
DGENRE=Folk
TTITLE0=Vilt tú meg elska
TTITLE1=Nú Heiðafuglur
TTITLE2=Tá sjómaður kemur heim
TTITLE3=Mær undist ta fakrastu rósu
TTITLE4=Omman og Abbin
TTITLE5=Størnurnar Klampa
TTITLE6=Mánin hann skein
TTITLE7=Oh my Lord
TTITLE8=Hvat var verðin uttan Jesus
TTITLE9=Navnið Jesus aldri bliknar
TTITLE10=Give me the old time religion
TTITLE11=You can make me
TTITLE12=I leave
TTITLE13=I had a dream
TTITLE14=Dreymur
TTITLE15=Náttúran
TTITLE16=Jeg vover en rejse
TTITLE17=Vónbrotin
TTITLE18=Urtagarðsblóman
TTITLE19=Sól til viðar gongur
EXTD=
EXTT0=
EXTT1=
EXTT2=
EXTT3=
EXTT4=
EXTT5=
EXTT6=
EXTT7=
EXTT8=
EXTT9=
EXTT10=
EXTT11=
EXTT12=
EXTT13=
EXTT14=
EXTT15=
EXTT16=
EXTT17=
EXTT18=
EXTT19=
PLAYORDER=
